<svg width="689" height="672" viewBox="0 0 689 672" fill="none" xmlns="http://www.w3.org/2000/svg">
<path d="M137.232 4.85418C105.277 17.6142 62.1221 82.7682 71.5846 103.414C107.172 181.742 140.626 214.446 181.359 278.724L53.265 278.071C32.9541 277.896 19.1587 293.667 6.55798 322.468C-14.5972 370.832 17.8206 438.2 69.5296 447.567C109.02 454.624 151.57 454.72 194.23 452.489C172.486 503.259 150.741 554.872 125.842 611.456C126.782 613.845 128.089 640.831 141.772 650.883C158.037 662.735 220.18 678.665 231.57 669.043C257.361 647.139 272.893 612.794 293.363 584.167C309.484 561.61 324.236 540.423 338.254 519.874C361.496 557.692 385.885 596.035 414.511 635.861C421.632 645.705 430.441 653.272 440.557 654.929C455.898 657.414 495.325 646.964 506.173 642.217C524.524 634.028 564.111 602.009 561.435 587.29C555.301 554.028 519.124 528.571 504.532 496.536C494.974 475.476 485.703 456.281 476.256 436.129C521.721 434.472 567.854 432.561 608.333 429.821C648.492 427.081 666.477 428.419 680.671 383.464C698.784 325.877 689.385 289.445 607.329 290.019L479.299 299.338C508.021 253.029 538.049 204.824 574.975 148.384C589.663 126.098 563.872 55.1454 536.138 33.385C509.104 12.0705 431.095 7.35521 417.905 25.85C379.672 79.2636 358.167 113.545 337.107 151.953C309.787 97.9336 297.186 84.7595 256.214 28.6856C240.443 7.08439 169.905 -8.27221 137.232 4.85418Z" fill="white"/>
</svg>
